<svg width="40" height="40" viewBox="0 0 40 40" xmlns="http://www.w3.org/2000/svg">
  <defs>
    <linearGradient id="logoGradient" x1="0%" y1="0%" x2="100%" y2="100%">
      <stop offset="0%" style="stop-color:#3B82F6;stop-opacity:1" />
      <stop offset="50%" style="stop-color:#1D4ED8;stop-opacity:1" />
      <stop offset="100%" style="stop-color:#1E40AF;stop-opacity:1" />
    </linearGradient>
  </defs>
  
  <!-- Background circle -->
  <circle cx="20" cy="20" r="18" fill="url(#logoGradient)" stroke="#1E40AF" stroke-width="1"/>
  
  <!-- Letter "I" -->
  <rect x="12" y="10" width="3" height="20" fill="white"/>
  <rect x="10" y="10" width="7" height="3" fill="white"/>
  <rect x="10" y="27" width="7" height="3" fill="white"/>
  
  <!-- Letter "G" -->
  <path d="M22 10 C27 10 30 13 30 18 L30 22 C30 27 27 30 22 30 C17 30 14 27 14 22 L14 18 C14 13 17 10 22 10 Z" 
        fill="none" stroke="white" stroke-width="2.5"/>
  <rect x="22" y="18" width="8" height="3" fill="white"/>
  <rect x="27" y="18" width="3" height="9" fill="white"/>
  
  <!-- Accent dot -->
  <circle cx="32" cy="12" r="2" fill="#F59E0B"/>
</svg>
